Title:
Twice Born Aka Venuto Al Mondo

Country:
Italy, 2012

Language:
English, Italian, Bosnian

Subtitle:
English

Director:
Sergio Castellitto

Writers:
Margaret Mazzantini (novel), Sergio Castellitto (screenplay)

Stars:
Penélope Cruz, Emile Hirsch, Mira Furlan

Synopsis:
A single mother brings her teenage son to Sarajevo, where his father died in the Bosnian conflict years ago. 

Trivia:
Official Selection Toronto International Film Festival 2012

Imdb: 
http://www.imdb.com/title/tt1396226

Trailer: 
http://www.kino-zeit.de/filme/trailer/twice-born

Media Info:

General
Complete name                            : Twice.Born.[Venuto.Al.Mondo].2012.DVDRip.XviD.AC3.HORiZON-ArtSubs
Format                                   : AVI
Format/Info                              : Audio Video Interleave
Format profile                           : OpenDML
File size                                : 1.71 GiB
Duration                                 : 2h 4mn
Overall bit rate                         : 1 964 Kbps
Writing application                      : Lavf52.94.0

Video
ID                                       : 0
Format                                   : MPEG-4 Visual
Format profile                           : Simple@L3
Format settings, BVOP                    : No
Format settings, QPel                    : No
Format settings, GMC                     : No warppoints
Format settings, Matrix                  : Default (H.263)
Codec ID                                 : XVID
Codec ID/Hint                            : XviD
Duration                                 : 2h 4mn
Bit rate                                 : 1 728 Kbps
Width                                    : 720 pixels
Height                                   : 304 pixels
Display aspect ratio                     : 2.35:1
Frame rate                               : 25.000 fps
Color space                              : YUV
Chroma subsampling                       : 4:2:0
Bit depth                                : 8 bits
Scan type                                : Progressive
Compression mode                         : Lossy
Bits/(Pixel*Frame)                       : 0.316
Stream size                              : 1.50 GiB (88%)
Writing library                          : XviD 1.2.1 (UTC 2008-12-04)

Audio
ID                                       : 1
Format                                   : AC-3
Format/Info                              : Audio Coding 3
Mode extension                           : CM (complete main)
Format settings, Endianness              : Big
Codec ID                                 : 2000
Duration                                 : 2h 4mn
Bit rate mode                            : Constant
Bit rate                                 : 224 Kbps
Channel(s)                               : 2 channels
Channel positions                        : Front: L R
Sampling rate                            : 48.0 KHz
Bit depth                                : 16 bits
Compression mode                         : Lossy
Stream size                              : 199 MiB (11%)
Alignment                                : Aligned on interleaves
Interleave, duration                     : 32 ms (0.80 video frame)
Interleave, preload duration             : 32 ms

